<svg xmlns="http://www.w3.org/2000/svg" version="1.1" xmlns:xlink="http://www.w3.org/1999/xlink" xmlns:svgjs="http://svgjs.dev/svgjs" width="1500" height="1500" viewBox="0 0 1500 1500"><rect width="1500" height="1500" fill="#ffffff"></rect><g transform="matrix(0.6666666666666666,0,0,0.6666666666666666,249.39393939393938,438.5856950067477)"><svg viewBox="0 0 396 247" data-background-color="#000000" preserveAspectRatio="xMidYMid meet" height="935" width="1500" xmlns="http://www.w3.org/2000/svg" xmlns:xlink="http://www.w3.org/1999/xlink"><g id="tight-bounds" transform="matrix(1,0,0,1,0.2400000000000091,-0.09999999999999432)"><svg viewBox="0 0 395.52 247.2" height="247.2" width="395.52"><rect width="395.52" height="247.2" fill="#000000" mask="url(#ae56f43b-6d67-4ba3-bfe4-1d8549a155c3)" data-fill-palette-color="tertiary"></rect><g><svg></svg></g><g><svg viewBox="0 0 395.52 247.2" height="247.2" width="395.52"><g transform="matrix(1,0,0,1,75.54432,89.4976561747796)"><svg viewBox="0 0 244.43135999999998 68.20468765044077" height="68.20468765044077" width="244.43135999999998"><g><svg viewBox="0 0 244.43135999999998 68.20468765044077" height="68.20468765044077" width="244.43135999999998"><g><svg viewBox="0 0 244.43135999999998 68.20468765044077" height="68.20468765044077" width="244.43135999999998"><g><svg viewBox="0 0 244.43135999999998 68.20468765044077" height="68.20468765044077" width="244.43135999999998"><g id="textblocktransform"><svg viewBox="0 0 244.43135999999998 68.20468765044077" height="68.20468765044077" width="244.43135999999998" id="textblock"><g><svg viewBox="0 0 244.43135999999998 68.20468765044077" height="68.20468765044077" width="244.43135999999998"><g transform="matrix(1,0,0,1,0,0)"><svg width="244.43135999999998" viewBox="3.7 -35.9 130.44 36.4" height="68.20468765044077" data-palette-color="url(#ca986bd1-a351-4251-a25e-0d6714e64c9f)"></svg></g></svg></g></svg></g></svg></g></svg></g></svg></g></svg></g><path d="M191.022 83.498L191.022 26.255 385.712 26.255 385.712 220.945 191.022 220.945 191.022 163.702 197.172 163.702 197.172 214.794 379.561 214.794 379.561 32.406 197.172 32.406 197.172 83.498Z" fill="#000000" stroke="transparent" data-fill-palette-color="tertiary"></path></svg></g><defs></defs><mask id="8b197dd1-0f27-4411-a1bc-026e351daa1d"><g id="SvgjsG1085"><svg viewBox="0 0 395.52 247.2" height="247.2" width="395.52"><g><svg></svg></g><g><svg viewBox="0 0 395.52 247.2" height="247.2" width="395.52"><g transform="matrix(1,0,0,1,75.54432,89.4976561747796)"><svg viewBox="0 0 244.43135999999998 68.20468765044077" height="68.20468765044077" width="244.43135999999998"><g><svg viewBox="0 0 244.43135999999998 68.20468765044077" height="68.20468765044077" width="244.43135999999998"><g><svg viewBox="0 0 244.43135999999998 68.20468765044077" height="68.20468765044077" width="244.43135999999998"><g><svg viewBox="0 0 244.43135999999998 68.20468765044077" height="68.20468765044077" width="244.43135999999998"><g id="SvgjsG1084"><svg viewBox="0 0 244.43135999999998 68.20468765044077" height="68.20468765044077" width="244.43135999999998" id="SvgjsSvg1083"><g><svg viewBox="0 0 244.43135999999998 68.20468765044077" height="68.20468765044077" width="244.43135999999998"><g transform="matrix(1,0,0,1,0,0)"><svg width="244.43135999999998" viewBox="3.7 -35.9 130.44 36.4" height="68.20468765044077" data-palette-color="url(#ca986bd1-a351-4251-a25e-0d6714e64c9f)"><path d="M7.25 0L4.85 0Q4.35 0 4.03-0.33 3.7-0.65 3.7-1.15L3.7-1.15 3.7-24.85Q3.7-25.35 4.03-25.68 4.35-26 4.85-26L4.85-26 7.1-26Q7.6-26 7.93-25.68 8.25-25.35 8.25-24.85L8.25-24.85 8.25-23.1Q9.4-24.65 11.15-25.58 12.9-26.5 15.35-26.5L15.35-26.5Q21-26.55 23.35-21.9L23.35-21.9Q24.5-24 26.7-25.25 28.9-26.5 31.7-26.5L31.7-26.5Q34.3-26.5 36.43-25.3 38.55-24.1 39.78-21.68 41-19.25 41-15.6L41-15.6 41-1.15Q41-0.65 40.68-0.33 40.35 0 39.85 0L39.85 0 37.5 0Q37 0 36.68-0.33 36.35-0.65 36.35-1.15L36.35-1.15 36.35-15.15Q36.35-17.95 35.55-19.55 34.75-21.15 33.4-21.8 32.05-22.45 30.45-22.45L30.45-22.45Q29.15-22.45 27.8-21.8 26.45-21.15 25.58-19.55 24.7-17.95 24.7-15.15L24.7-15.15 24.7-1.15Q24.7-0.65 24.38-0.33 24.05 0 23.55 0L23.55 0 21.2 0Q20.7 0 20.38-0.33 20.05-0.65 20.05-1.15L20.05-1.15 20.05-15.15Q20.05-17.95 19.2-19.55 18.35-21.15 17-21.8 15.65-22.45 14.15-22.45L14.15-22.45Q12.85-22.45 11.5-21.8 10.15-21.15 9.28-19.55 8.4-17.95 8.4-15.2L8.4-15.2 8.4-1.15Q8.4-0.65 8.08-0.33 7.75 0 7.25 0L7.25 0ZM58.8 0.5L58.8 0.5Q55 0.5 52.45-0.95 49.9-2.4 48.55-4.98 47.2-7.55 47.05-10.85L47.05-10.85Q47-11.7 47-13.03 47-14.35 47.05-15.15L47.05-15.15Q47.2-18.5 48.57-21.05 49.95-23.6 52.5-25.05 55.05-26.5 58.8-26.5L58.8-26.5Q62.55-26.5 65.1-25.05 67.65-23.6 69.02-21.05 70.4-18.5 70.55-15.15L70.55-15.15Q70.6-14.35 70.6-13.03 70.6-11.7 70.55-10.85L70.55-10.85Q70.4-7.55 69.05-4.98 67.7-2.4 65.15-0.95 62.6 0.5 58.8 0.5ZM58.8-3.35L58.8-3.35Q61.9-3.35 63.75-5.33 65.6-7.3 65.75-11.1L65.75-11.1Q65.8-11.85 65.8-13 65.8-14.15 65.75-14.9L65.75-14.9Q65.6-18.7 63.75-20.68 61.9-22.65 58.8-22.65L58.8-22.65Q55.7-22.65 53.82-20.68 51.95-18.7 51.85-14.9L51.85-14.9Q51.8-14.15 51.8-13 51.8-11.85 51.85-11.1L51.85-11.1Q51.95-7.3 53.82-5.33 55.7-3.35 58.8-3.35ZM80.55 0L78.05 0Q77.55 0 77.22-0.33 76.9-0.65 76.9-1.15L76.9-1.15 76.9-34.35Q76.9-34.85 77.22-35.18 77.55-35.5 78.05-35.5L78.05-35.5 80.55-35.5Q81.1-35.5 81.4-35.18 81.7-34.85 81.7-34.35L81.7-34.35 81.7-22.7Q83.05-24.4 85-25.45 86.95-26.5 89.95-26.5L89.95-26.5Q93.2-26.5 95.47-25.08 97.75-23.65 98.92-21.13 100.1-18.6 100.1-15.25L100.1-15.25 100.1-1.15Q100.1-0.65 99.8-0.33 99.5 0 98.95 0L98.95 0 96.45 0Q95.95 0 95.62-0.33 95.3-0.65 95.3-1.15L95.3-1.15 95.3-15Q95.3-18.5 93.6-20.48 91.9-22.45 88.6-22.45L88.6-22.45Q85.5-22.45 83.6-20.48 81.7-18.5 81.7-15L81.7-15 81.7-1.15Q81.7-0.65 81.4-0.33 81.1 0 80.55 0L80.55 0ZM110.84 0L108.44 0Q107.94 0 107.62-0.33 107.29-0.65 107.29-1.15L107.29-1.15 107.29-24.85Q107.29-25.35 107.62-25.68 107.94-26 108.44-26L108.44-26 110.84-26Q111.34-26 111.67-25.68 111.99-25.35 111.99-24.85L111.99-24.85 111.99-1.15Q111.99-0.65 111.67-0.33 111.34 0 110.84 0L110.84 0ZM111.19-30.85L108.04-30.85Q107.54-30.85 107.22-31.18 106.89-31.5 106.89-32L106.89-32 106.89-34.7Q106.89-35.2 107.22-35.55 107.54-35.9 108.04-35.9L108.04-35.9 111.19-35.9Q111.69-35.9 112.04-35.55 112.39-35.2 112.39-34.7L112.39-34.7 112.39-32Q112.39-31.5 112.04-31.18 111.69-30.85 111.19-30.85L111.19-30.85ZM132.99 0L129.54 0Q126.74 0 124.99-1.07 123.24-2.15 122.44-4.13 121.64-6.1 121.64-8.8L121.64-8.8 121.64-22 117.74-22Q117.24-22 116.92-22.33 116.59-22.65 116.59-23.15L116.59-23.15 116.59-24.85Q116.59-25.35 116.92-25.68 117.24-26 117.74-26L117.74-26 121.64-26 121.64-34.35Q121.64-34.85 121.97-35.18 122.29-35.5 122.79-35.5L122.79-35.5 125.14-35.5Q125.64-35.5 125.97-35.18 126.29-34.85 126.29-34.35L126.29-34.35 126.29-26 132.49-26Q133.04-26 133.34-25.68 133.64-25.35 133.64-24.85L133.64-24.85 133.64-23.15Q133.64-22.65 133.34-22.33 133.04-22 132.49-22L132.49-22 126.29-22 126.29-9.15Q126.29-6.8 127.09-5.45 127.89-4.1 129.94-4.1L129.94-4.1 132.99-4.1Q133.49-4.1 133.82-3.78 134.14-3.45 134.14-2.95L134.14-2.95 134.14-1.15Q134.14-0.65 133.82-0.33 133.49 0 132.99 0L132.99 0Z" opacity="1" transform="matrix(1,0,0,1,0,0)" fill="white" class="wordmark-text-0" id="SvgjsPath1082"></path></svg></g></svg></g></svg></g></svg></g></svg></g></svg></g></svg></g><path d="M191.022 83.498L191.022 26.255 385.712 26.255 385.712 220.945 191.022 220.945 191.022 163.702 197.172 163.702 197.172 214.794 379.561 214.794 379.561 32.406 197.172 32.406 197.172 83.498Z" fill="black" stroke="transparent"></path></svg></g><defs><mask></mask></defs></svg><rect width="395.52" height="247.2" fill="black" stroke="none" visibility="hidden"></rect></g></mask><linearGradient x1="0" x2="1" y1="0.548" y2="0.55" id="ca986bd1-a351-4251-a25e-0d6714e64c9f"><stop stop-color="#ff6cab" offset="0"></stop><stop stop-color="#7366ff" offset="1"></stop></linearGradient><rect width="395.52" height="247.2" fill="#000000" mask="url(#8b197dd1-0f27-4411-a1bc-026e351daa1d)" data-fill-palette-color="primary"></rect><mask id="ae56f43b-6d67-4ba3-bfe4-1d8549a155c3"><g id="SvgjsG1108"><svg viewBox="0 0 395.52 247.2" height="247.2" width="395.52"><g><svg></svg></g><g><svg viewBox="0 0 395.52 247.2" height="247.2" width="395.52"><g transform="matrix(1,0,0,1,75.54432,89.4976561747796)"><svg viewBox="0 0 244.43135999999998 68.20468765044077" height="68.20468765044077" width="244.43135999999998"><g><svg viewBox="0 0 244.43135999999998 68.20468765044077" height="68.20468765044077" width="244.43135999999998"><g><svg viewBox="0 0 244.43135999999998 68.20468765044077" height="68.20468765044077" width="244.43135999999998"><g><svg viewBox="0 0 244.43135999999998 68.20468765044077" height="68.20468765044077" width="244.43135999999998"><g id="SvgjsG1107"><svg viewBox="0 0 244.43135999999998 68.20468765044077" height="68.20468765044077" width="244.43135999999998" id="SvgjsSvg1106"><g><svg viewBox="0 0 244.43135999999998 68.20468765044077" height="68.20468765044077" width="244.43135999999998"><g transform="matrix(1,0,0,1,0,0)"><svg width="244.43135999999998" viewBox="3.7 -35.9 130.44 36.4" height="68.20468765044077" data-palette-color="url(#ca986bd1-a351-4251-a25e-0d6714e64c9f)"></svg></g></svg></g></svg></g></svg></g></svg></g></svg></g></svg></g><path d="M191.022 83.498L191.022 26.255 385.712 26.255 385.712 220.945 191.022 220.945 191.022 163.702 197.172 163.702 197.172 214.794 379.561 214.794 379.561 32.406 197.172 32.406 197.172 83.498Z" fill="white" stroke="transparent"></path></svg></g><defs><mask></mask></defs><mask><g id="SvgjsG1105"><svg viewBox="0 0 395.52 247.2" height="247.2" width="395.52"><g><svg></svg></g><g><svg viewBox="0 0 395.52 247.2" height="247.2" width="395.52"><g transform="matrix(1,0,0,1,75.54432,89.4976561747796)"><svg viewBox="0 0 244.43135999999998 68.20468765044077" height="68.20468765044077" width="244.43135999999998"><g><svg viewBox="0 0 244.43135999999998 68.20468765044077" height="68.20468765044077" width="244.43135999999998"><g><svg viewBox="0 0 244.43135999999998 68.20468765044077" height="68.20468765044077" width="244.43135999999998"><g><svg viewBox="0 0 244.43135999999998 68.20468765044077" height="68.20468765044077" width="244.43135999999998"><g id="SvgjsG1104"><svg viewBox="0 0 244.43135999999998 68.20468765044077" height="68.20468765044077" width="244.43135999999998" id="SvgjsSvg1103"><g><svg viewBox="0 0 244.43135999999998 68.20468765044077" height="68.20468765044077" width="244.43135999999998"><g transform="matrix(1,0,0,1,0,0)"><svg width="244.43135999999998" viewBox="3.7 -35.9 130.44 36.4" height="68.20468765044077" data-palette-color="url(#ca986bd1-a351-4251-a25e-0d6714e64c9f)"><path d="M7.25 0L4.85 0Q4.35 0 4.03-0.33 3.7-0.65 3.7-1.15L3.7-1.15 3.7-24.85Q3.7-25.35 4.03-25.68 4.35-26 4.85-26L4.85-26 7.1-26Q7.6-26 7.93-25.68 8.25-25.35 8.25-24.85L8.25-24.85 8.25-23.1Q9.4-24.65 11.15-25.58 12.9-26.5 15.35-26.5L15.35-26.5Q21-26.55 23.35-21.9L23.35-21.9Q24.5-24 26.7-25.25 28.9-26.5 31.7-26.5L31.7-26.5Q34.3-26.5 36.43-25.3 38.55-24.1 39.78-21.68 41-19.25 41-15.6L41-15.6 41-1.15Q41-0.65 40.68-0.33 40.35 0 39.85 0L39.85 0 37.5 0Q37 0 36.68-0.33 36.35-0.65 36.35-1.15L36.35-1.15 36.35-15.15Q36.35-17.95 35.55-19.55 34.75-21.15 33.4-21.8 32.05-22.45 30.45-22.45L30.45-22.45Q29.15-22.45 27.8-21.8 26.45-21.15 25.58-19.55 24.7-17.95 24.7-15.15L24.7-15.15 24.7-1.15Q24.7-0.65 24.38-0.33 24.05 0 23.55 0L23.55 0 21.2 0Q20.7 0 20.38-0.33 20.05-0.65 20.05-1.15L20.05-1.15 20.05-15.15Q20.05-17.95 19.2-19.55 18.35-21.15 17-21.8 15.65-22.45 14.15-22.45L14.15-22.45Q12.85-22.45 11.5-21.8 10.15-21.15 9.28-19.55 8.4-17.95 8.4-15.2L8.4-15.2 8.4-1.15Q8.4-0.65 8.08-0.33 7.75 0 7.25 0L7.25 0ZM58.8 0.5L58.8 0.5Q55 0.5 52.45-0.95 49.9-2.4 48.55-4.98 47.2-7.55 47.05-10.85L47.05-10.85Q47-11.7 47-13.03 47-14.35 47.05-15.15L47.05-15.15Q47.2-18.5 48.57-21.05 49.95-23.6 52.5-25.05 55.05-26.5 58.8-26.5L58.8-26.5Q62.55-26.5 65.1-25.05 67.65-23.6 69.02-21.05 70.4-18.5 70.55-15.15L70.55-15.15Q70.6-14.35 70.6-13.03 70.6-11.7 70.55-10.85L70.55-10.85Q70.4-7.55 69.05-4.98 67.7-2.4 65.15-0.95 62.6 0.5 58.8 0.5ZM58.8-3.35L58.8-3.35Q61.9-3.35 63.75-5.33 65.6-7.3 65.75-11.1L65.75-11.1Q65.8-11.85 65.8-13 65.8-14.15 65.75-14.9L65.75-14.9Q65.6-18.7 63.75-20.68 61.9-22.65 58.8-22.65L58.8-22.65Q55.7-22.65 53.82-20.68 51.95-18.7 51.85-14.9L51.85-14.9Q51.8-14.15 51.8-13 51.8-11.85 51.85-11.1L51.85-11.1Q51.95-7.3 53.82-5.33 55.7-3.35 58.8-3.35ZM80.55 0L78.05 0Q77.55 0 77.22-0.33 76.9-0.65 76.9-1.15L76.9-1.15 76.9-34.35Q76.9-34.85 77.22-35.18 77.55-35.5 78.05-35.5L78.05-35.5 80.55-35.5Q81.1-35.5 81.4-35.18 81.7-34.85 81.7-34.35L81.7-34.35 81.7-22.7Q83.05-24.4 85-25.45 86.95-26.5 89.95-26.5L89.95-26.5Q93.2-26.5 95.47-25.08 97.75-23.65 98.92-21.13 100.1-18.6 100.1-15.25L100.1-15.25 100.1-1.15Q100.1-0.65 99.8-0.33 99.5 0 98.95 0L98.95 0 96.45 0Q95.95 0 95.62-0.33 95.3-0.65 95.3-1.15L95.3-1.15 95.3-15Q95.3-18.5 93.6-20.48 91.9-22.45 88.6-22.45L88.6-22.45Q85.5-22.45 83.6-20.48 81.7-18.5 81.7-15L81.7-15 81.7-1.15Q81.7-0.65 81.4-0.33 81.1 0 80.55 0L80.55 0ZM110.84 0L108.44 0Q107.94 0 107.62-0.33 107.29-0.65 107.29-1.15L107.29-1.15 107.29-24.85Q107.29-25.35 107.62-25.68 107.94-26 108.44-26L108.44-26 110.84-26Q111.34-26 111.67-25.68 111.99-25.35 111.99-24.85L111.99-24.85 111.99-1.15Q111.99-0.65 111.67-0.33 111.34 0 110.84 0L110.84 0ZM111.19-30.85L108.04-30.85Q107.54-30.85 107.22-31.18 106.89-31.5 106.89-32L106.89-32 106.89-34.7Q106.89-35.2 107.22-35.55 107.54-35.9 108.04-35.9L108.04-35.9 111.19-35.9Q111.69-35.9 112.04-35.55 112.39-35.2 112.39-34.7L112.39-34.7 112.39-32Q112.39-31.5 112.04-31.18 111.69-30.85 111.19-30.85L111.19-30.85ZM132.99 0L129.54 0Q126.74 0 124.99-1.07 123.24-2.15 122.44-4.13 121.64-6.1 121.64-8.8L121.64-8.8 121.64-22 117.74-22Q117.24-22 116.92-22.33 116.59-22.65 116.59-23.15L116.59-23.15 116.59-24.85Q116.59-25.35 116.92-25.68 117.24-26 117.74-26L117.74-26 121.64-26 121.64-34.35Q121.64-34.85 121.97-35.18 122.29-35.5 122.79-35.5L122.79-35.5 125.14-35.5Q125.64-35.5 125.97-35.18 126.29-34.85 126.29-34.35L126.29-34.35 126.29-26 132.49-26Q133.04-26 133.34-25.68 133.64-25.35 133.64-24.85L133.64-24.85 133.64-23.15Q133.64-22.65 133.34-22.33 133.04-22 132.49-22L132.49-22 126.29-22 126.29-9.15Q126.29-6.8 127.09-5.45 127.89-4.1 129.94-4.1L129.94-4.1 132.99-4.1Q133.49-4.1 133.82-3.78 134.14-3.45 134.14-2.95L134.14-2.95 134.14-1.15Q134.14-0.65 133.82-0.33 133.49 0 132.99 0L132.99 0Z" opacity="1" transform="matrix(1,0,0,1,0,0)" fill="black" class="wordmark-text-0" id="SvgjsPath1102"></path></svg></g></svg></g></svg></g></svg></g></svg></g></svg></g></svg></g><path d="M191.022 83.498L191.022 26.255 385.712 26.255 385.712 220.945 191.022 220.945 191.022 163.702 197.172 163.702 197.172 214.794 379.561 214.794 379.561 32.406 197.172 32.406 197.172 83.498Z" fill="black" stroke="transparent"></path></svg></g><defs><mask></mask></defs></svg><rect width="395.52" height="247.2" fill="black" stroke="none" visibility="hidden"></rect></g></mask></svg><rect width="395.52" height="247.2" fill="black" stroke="none" visibility="hidden"></rect></g></mask><linearGradient x1="0" x2="1" y1="0.548" y2="0.55" id="e7ff03e6-e20e-4a2c-bf28-ba4b187702e5"><stop stop-color="#ff6cab" offset="0"></stop><stop stop-color="#7366ff" offset="1"></stop></linearGradient></svg><rect width="395.52" height="247.2" fill="none" stroke="none" visibility="hidden"></rect></g></svg></g></svg>