<?xml version="1.0" encoding="UTF-8"?>
<svg version="1.1" xmlns="http://www.w3.org/2000/svg" width="1500" height="935">
<path d="M0 0 C243.54 0 487.08 0 738 0 C738 243.21 738 486.42 738 737 C494.46 737 250.92 737 0 737 C0 665.39 0 593.78 0 520 C7.92 520 15.84 520 24 520 C24 583.69 24 647.38 24 713 C251.7 713 479.4 713 714 713 C714 485.63 714 258.26 714 24 C486.3 24 258.6 24 24 24 C24 87.69 24 151.38 24 217 C16.08 217 8.16 217 0 217 C0 145.39 0 73.78 0 0 Z " fill="#B068DA" transform="translate(724,99)"/>
<path d="M0 0 C1.13187744 -0.01023193 2.26375488 -0.02046387 3.42993164 -0.03100586 C19.31581008 0.13409921 33.32856941 4.80747667 44.97265625 15.84765625 C49.19743924 20.4021784 52.81266248 25.35213412 56.375 30.4375 C56.7875 29.880625 57.2 29.32375 57.625 28.75 C68.79839916 13.98515111 81.76351093 4.90930876 99.9921875 0.85546875 C120.00135419 -1.6167955 139.72855828 0.23524889 156.23828125 12.578125 C170.76291997 25.18524692 179.54419723 42.19463191 181.375 61.4375 C181.53100397 65.44473851 181.54236356 69.44976745 181.55200195 73.4597168 C181.55857315 74.65400299 181.56514435 75.84828918 181.57191467 77.07876587 C181.59156289 81.01474378 181.60329362 84.95070833 181.61328125 88.88671875 C181.61733262 90.24590385 181.62144965 91.60508875 181.62563133 92.96427345 C181.64463915 99.34372096 181.65888681 105.72315713 181.6672433 112.10262746 C181.67703976 119.45820812 181.70343987 126.81348981 181.74374419 134.16896504 C181.77387939 139.86424092 181.78870914 145.55943081 181.79202431 151.25478488 C181.79437509 154.65313823 181.80334072 158.05117047 181.82848549 161.4494381 C181.85270836 165.23436098 181.85194329 169.01849093 181.8449707 172.8034668 C181.86418579 174.49061043 181.86418579 174.49061043 181.88378906 176.21183777 C181.87337334 177.757323 181.87337334 177.757323 181.86274719 179.33403015 C181.86513555 180.22829555 181.8675239 181.12256094 181.86998463 182.04392529 C181.2149114 185.21163318 179.83490553 186.40960604 177.375 188.4375 C173.42384813 189.8879046 169.22753224 189.65870116 165.0625 189.6875 C163.96131836 189.7184375 163.96131836 189.7184375 162.83789062 189.75 C157.6249166 189.78700425 153.88238953 189.15678697 149.375 186.4375 C146.75524919 181.01736691 147.0958613 175.41293685 147.11962891 169.52954102 C147.11419823 167.8965078 147.11419823 167.8965078 147.10865784 166.23048401 C147.10177448 163.87008564 147.09925641 161.5096714 147.10060501 159.14926338 C147.10157273 155.40180411 147.08859598 151.65462976 147.07162476 147.9072113 C147.02544458 137.25333973 147.00069471 126.59951843 146.99414062 115.94555664 C146.98909915 109.42216453 146.96471061 102.89906796 146.92881393 96.37577629 C146.91907205 93.90133382 146.91665301 91.42685039 146.92198563 88.95239449 C147.09667412 62.76327514 147.09667412 62.76327514 134.59765625 40.48046875 C126.84251048 32.94735169 117.43642917 30.81395634 106.8671875 30.33984375 C95.77399284 30.65005613 85.86299795 34.51658047 78.125 42.5 C68.95985586 53.49087007 67.0637993 67.12027977 67.11962891 80.95825195 C67.11600845 82.0635878 67.112388 83.16892365 67.10865784 84.30775452 C67.10180276 86.68993115 67.09925104 89.07212335 67.10060501 91.45430946 C67.10157505 95.22454495 67.08857407 98.99449913 67.07162476 102.76469421 C67.02547739 113.47763933 67.00064111 124.1905298 66.99414062 134.90356445 C66.98998811 141.47040976 66.96493588 148.03699191 66.92881393 154.60375023 C66.91900672 157.10320433 66.91668897 159.60269941 66.92198563 162.10216713 C66.92903499 165.58967854 66.91182003 169.07629404 66.88916016 172.5637207 C66.89733261 173.59601807 66.90550507 174.62831543 66.91392517 175.69189453 C66.86247375 180.13399298 66.81773225 182.71123143 64.4672699 186.56698608 C60.16611522 190.41226899 54.92187112 189.62059488 49.4375 189.625 C48.63892578 189.63724609 47.84035156 189.64949219 47.01757812 189.66210938 C41.93344868 189.67474599 37.88461716 189.45266994 33.76609039 186.14557934 C31.97439883 183.9456135 31.99896033 182.74819222 31.99645996 179.93244934 C31.98825729 179.00906265 31.98005463 178.08567596 31.97160339 177.13430786 C31.97775162 176.12294769 31.98389984 175.11158752 31.99023438 174.06958008 C31.9848616 173.00244278 31.97948883 171.93530548 31.97395325 170.83583069 C31.9641554 168.51304245 31.96123712 166.19021753 31.96430969 163.86741066 C31.96878442 160.17865726 31.95479141 156.49038458 31.93591309 152.80168152 C31.899062 144.95112907 31.8854344 137.10062616 31.875 129.25 C31.86288688 120.19425645 31.84103956 111.13874508 31.79499817 102.08310509 C31.78153799 98.47179643 31.78558163 94.86078937 31.79040527 91.24946594 C31.7572153 64.02480623 31.7572153 64.02480623 19.1875 40.5 C10.70455158 32.83918755 -0.84321036 30.06169755 -12 30.5 C-21.60402871 31.47399348 -31.21165523 34.95251664 -37.625 42.4375 C-46.97833687 54.89351762 -48.77480698 69.37050233 -48.7668457 84.47167969 C-48.77032013 85.54906906 -48.77379456 86.62645844 -48.77737427 87.73649597 C-48.78469667 90.06360108 -48.79006067 92.39071301 -48.79366493 94.71782684 C-48.8008594 98.39936432 -48.81654489 102.08077076 -48.83500671 105.76226807 C-48.88736123 116.22512104 -48.9355129 126.68789748 -48.95092773 137.15087891 C-48.9609873 143.55984147 -48.99024902 149.96846688 -49.03224754 156.37729645 C-49.04457948 158.81895656 -49.04967483 161.26066419 -49.04744911 163.70235443 C-49.04510609 167.10890518 -49.06718361 170.51447934 -49.0949707 173.92089844 C-49.08506859 175.43737221 -49.08506859 175.43737221 -49.07496643 176.98448181 C-49.16668333 183.81053789 -49.16668333 183.81053789 -51.53372192 187.04856873 C-56.17309645 190.12982915 -61.17940042 189.62067623 -66.5625 189.625 C-67.36107422 189.63724609 -68.15964844 189.64949219 -68.98242188 189.66210938 C-74.08441674 189.67479039 -77.94737654 189.32662814 -82.23375893 186.30248165 C-84.37419261 183.43319493 -84.00284519 180.96391728 -84.00595093 177.42201233 C-84.0106309 176.7035661 -84.01531087 175.98511988 -84.02013266 175.24490255 C-84.03212397 172.83113218 -84.02260958 170.41792524 -84.01318359 168.00415039 C-84.01724751 166.27622648 -84.02258837 164.54830516 -84.02911377 162.82038879 C-84.04281569 158.12203606 -84.03747662 153.42388047 -84.02797651 148.72552419 C-84.02039357 143.81330274 -84.02742183 138.90109844 -84.03213501 133.98887634 C-84.03759706 125.7377519 -84.0303897 117.48670794 -84.01611328 109.2355957 C-83.99979131 99.6919535 -84.00507017 90.14850361 -84.0215925 80.60486609 C-84.035201 72.41710832 -84.03712997 64.2294085 -84.02927649 56.04164308 C-84.02459578 51.14879894 -84.02398593 46.25604522 -84.03388596 41.36320686 C-84.0425439 36.76261445 -84.03655518 32.1622702 -84.01920319 27.56170464 C-84.01523184 25.87181384 -84.01638345 24.1819022 -84.02299118 22.49201965 C-84.03117149 20.18772033 -84.02092832 17.88421955 -84.00595093 15.57997131 C-84.00481985 14.28967042 -84.00368877 12.99936953 -84.00252342 11.66996861 C-83.60018809 8.225053 -83.08973812 6.83172665 -80.625 4.4375 C-76.20269405 2.96339802 -71.88271583 3.21254171 -67.25 3.1875 C-66.30382812 3.166875 -65.35765625 3.14625 -64.3828125 3.125 C-55.59072901 3.07560627 -55.59072901 3.07560627 -51.625 6.4375 C-50.20865167 9.27019666 -50.2786995 11.91216438 -50.0625 15.0625 C-49.97871094 16.25101562 -49.89492188 17.43953125 -49.80859375 18.6640625 C-49.74800781 19.57929688 -49.68742187 20.49453125 -49.625 21.4375 C-49.04234375 20.79683594 -48.4596875 20.15617187 -47.859375 19.49609375 C-34.0861724 4.96493189 -19.58155607 0.13693396 0 0 Z " fill="#D86AC2" transform="translate(370.625,404.5625)"/>
<path d="M0 0 C1.70833008 -0.00966797 1.70833008 -0.00966797 3.45117188 -0.01953125 C4.63130859 -0.00019531 5.81144531 0.01914062 7.02734375 0.0390625 C8.21134766 0.01972656 9.39535156 0.00039063 10.61523438 -0.01953125 C11.75283203 -0.01308594 12.89042969 -0.00664062 14.0625 0 C15.09898682 0.00563965 16.13547363 0.0112793 17.20336914 0.01708984 C21.04199133 0.91642225 21.88650632 2.346767 23.96484375 5.6640625 C24.36006723 8.52155427 24.52968017 10.99665472 24.51074219 13.85083008 C24.52107986 14.66110657 24.53141754 15.47138306 24.54206848 16.30621338 C24.57147296 18.97387692 24.57299513 21.64078096 24.57421875 24.30859375 C24.58920202 26.16234278 24.60592947 28.01607848 24.62432861 29.86979675 C24.66799796 34.74088152 24.68800031 39.6117862 24.70306396 44.48303223 C24.72263652 49.45689541 24.76460639 54.43056416 24.8046875 59.40429688 C24.87998512 69.15749211 24.93027934 78.91064381 24.96484375 88.6640625 C25.62436035 87.98641846 26.28387695 87.30877441 26.96337891 86.6105957 C28.28281494 85.27001099 28.28281494 85.27001099 29.62890625 83.90234375 C30.49467285 83.01844971 31.36043945 82.13455566 32.25244141 81.22387695 C48.1360385 66.23382155 67.48991456 64.04334319 88.2890625 64.3515625 C106.43147818 64.96216126 121.85140004 71.91056838 134.89453125 84.53125 C151.12528733 101.91619318 155.09971346 125.80914186 155.12597656 148.72583008 C155.13094147 149.78239807 155.13590637 150.83896606 155.14102173 151.92755127 C155.15551052 155.38790558 155.16241925 158.84821422 155.16796875 162.30859375 C155.17220982 164.08930047 155.17220982 164.08930047 155.17653656 165.90598106 C155.19146709 172.17519729 155.20073815 178.44439082 155.20507812 184.71362305 C155.21058637 191.187847 155.23468122 197.66186314 155.26305008 204.13602161 C155.28165075 209.12109495 155.28688046 214.10611765 155.288414 219.09122276 C155.29144153 221.47906328 155.2994734 223.86690288 155.31259918 226.25470924 C155.32962243 229.58639229 155.32778955 232.91755889 155.32128906 236.24926758 C155.33050385 237.23481125 155.33971863 238.22035492 155.34921265 239.23576355 C155.31899993 244.17016135 155.26809882 247.70220506 151.96484375 251.6640625 C147.56458442 254.37128525 142.5992413 253.99594871 137.58984375 253.9765625 C136.35234375 254.00073242 136.35234375 254.00073242 135.08984375 254.02539062 C129.6347893 254.02972003 125.78157561 253.27577331 120.96484375 250.6640625 C119.81512948 248.36463397 119.8330508 247.05800589 119.82008362 244.50032043 C119.80973587 243.19086205 119.80973587 243.19086205 119.79917908 241.85494995 C119.79525902 240.41431686 119.79525902 240.41431686 119.79125977 238.94458008 C119.78457275 237.93450394 119.77788574 236.9244278 119.77099609 235.88374329 C119.75691701 233.68261243 119.74503214 231.48146673 119.73504829 229.28031349 C119.71864049 225.78526662 119.69539598 222.2903274 119.67015076 218.79533386 C119.59941575 208.85490305 119.53960892 198.91442515 119.48803711 188.97387695 C119.45602334 182.89605834 119.4146784 176.81835838 119.36784172 170.74063683 C119.35193722 168.43366345 119.33956314 166.12666271 119.33093452 163.81965065 C119.79000357 132.35341827 119.79000357 132.35341827 104.96484375 105.6640625 C94.58517062 96.89638406 81.33589179 93.66350788 67.96484375 94.6640625 C55.76048741 96.44357255 44.22414344 99.96030904 36.1875 109.8515625 C26.92467698 122.38476912 24.64424406 135.62951764 24.70947266 150.96875 C24.7058522 152.02721634 24.70223175 153.08568268 24.69850159 154.17622375 C24.69166344 156.44977971 24.68909154 158.72335189 24.69044876 160.99691772 C24.69142132 164.59481783 24.67838973 168.19242523 24.66146851 171.7902832 C24.61538781 182.01072022 24.59055748 192.2311226 24.58398438 202.45166016 C24.57898076 208.72257213 24.55480458 214.993171 24.51865768 221.26397705 C24.50884757 223.64982223 24.5065343 226.03571036 24.51182938 228.42156982 C24.51887013 231.74623428 24.50168374 235.06995603 24.47900391 238.39453125 C24.48717636 239.38052811 24.49534882 240.36652496 24.50376892 241.38240051 C24.42269214 248.04140025 24.42269214 248.04140025 22.05625916 251.25968933 C17.30904794 254.4474138 12.04954219 253.84737584 6.52734375 253.8515625 C5.68107422 253.86380859 4.83480469 253.87605469 3.96289062 253.88867188 C-1.27340255 253.90097327 -5.59194172 253.90838289 -9.64112091 250.18883419 C-11.81036482 246.2600632 -11.45496686 242.44684357 -11.42956543 238.0294342 C-11.43565653 237.04132466 -11.44174764 236.05321512 -11.44802332 235.03516287 C-11.46470993 231.71481366 -11.45986937 228.39484556 -11.45507812 225.07446289 C-11.46241513 222.69777527 -11.47100027 220.32109121 -11.48074341 217.94441223 C-11.50069253 212.15331607 -11.50633792 206.36233818 -11.50455552 200.57121021 C-11.50324827 195.86452793 -11.50705014 191.15787689 -11.51448059 186.45120049 C-11.51657977 185.09582867 -11.51867737 183.74045686 -11.52077341 182.38508505 C-11.52181694 181.71049568 -11.52286047 181.03590631 -11.52393562 180.34087484 C-11.5428404 167.58094002 -11.541787 154.82106269 -11.53496629 142.06111967 C-11.52939001 130.3861148 -11.55021931 118.71132931 -11.58332676 107.03637571 C-11.61705322 95.05016447 -11.63223345 83.06405837 -11.62760973 71.07779878 C-11.62536405 64.34773978 -11.63062245 57.61788357 -11.65550232 50.88786507 C-11.67770462 44.56028361 -11.67594553 38.23315993 -11.6555748 31.90557671 C-11.6521533 29.58074974 -11.65730253 27.25589234 -11.67155838 24.93110657 C-11.68965313 21.7620899 -11.67707352 18.59464238 -11.65661621 15.42567444 C-11.66913406 14.50135764 -11.68165191 13.57704084 -11.69454908 12.62471443 C-11.63229703 8.14000521 -11.48872635 6.25448346 -8.67699432 2.59439754 C-5.53028421 0.29516321 -3.86731415 0.02101964 0 0 Z " fill="#AD68DC" transform="translate(817.03515625,340.3359375)"/>
<path d="M0 0 C1.84464844 0.58587891 1.84464844 0.58587891 3.7265625 1.18359375 C22.38028572 7.64768473 36.2799333 20.63192788 45.13623047 38.19433594 C53.0241029 54.68351189 54.50796732 71.5382019 54.39111328 89.49926758 C54.37503935 92.43032489 54.39104572 95.35999997 54.41015625 98.29101562 C54.44001581 123.61685351 49.5892225 148.56463198 31.578125 167.6171875 C11.7127818 185.97758045 -12.79181586 189.75665095 -38.91113281 189.13623047 C-59.90404447 188.21036541 -79.37622617 179.95614237 -93.82421875 164.5859375 C-110.3982173 144.88757656 -114.18803943 120.46374928 -114.18530273 95.59814453 C-114.18747543 93.3998638 -114.2056552 91.20209785 -114.22460938 89.00390625 C-114.32565184 64.11488125 -110.02765481 38.6675638 -92.19970703 20.07617188 C-68.761367 -3.3862404 -31.54339169 -10.04347701 0 0 Z M-49 28 C-49.69222656 28.25523437 -50.38445313 28.51046875 -51.09765625 28.7734375 C-63.08107856 33.96704797 -70.44781473 44.41748263 -75.25 56.125 C-82.77431453 78.82334882 -82.81133233 112.99327329 -73 135 C-66.74621877 146.96652287 -58.53633859 154.02046449 -46 159 C-32.385565 162.93013386 -17.84043119 161.73521887 -5.1875 155.3125 C2.97423161 150.42728963 7.93619 144.7947493 12.3125 136.4375 C12.80109497 135.52895264 12.80109497 135.52895264 13.29956055 134.60205078 C19.26439319 122.41176342 19.48860058 108.87580916 19.39111328 95.60253906 C19.37501685 93.00272178 19.39106189 90.40445833 19.41015625 87.8046875 C19.43223599 70.64791815 17.72639878 50.88749244 5 38 C-10.1927418 24.96395656 -30.04329169 20.84065203 -49 28 Z " fill="#BF69D0" transform="translate(708,408)"/>
<path d="M0 0 C1.14984375 -0.02900391 2.2996875 -0.05800781 3.484375 -0.08789062 C4.59039063 -0.09626953 5.69640625 -0.10464844 6.8359375 -0.11328125 C8.35646729 -0.13515503 8.35646729 -0.13515503 9.90771484 -0.1574707 C13.43859084 0.4532154 14.42352989 1.5165162 16.625 4.3125 C17.10601807 7.1852417 17.10601807 7.1852417 17.07910156 10.54980469 C17.07879944 11.81080994 17.07849731 13.07181519 17.07818604 14.37103271 C17.05776105 15.74215326 17.03689709 17.11326733 17.015625 18.484375 C17.00816117 19.89112544 17.0024689 21.29788631 16.99847412 22.70465088 C16.9832286 26.40058282 16.94395731 30.09588227 16.8996582 33.79156494 C16.85868143 37.56538335 16.84045804 41.33930432 16.8203125 45.11328125 C16.77746099 52.51330864 16.70922405 59.91281557 16.625 67.3125 C17.20271652 67.30361755 17.78043304 67.29473511 18.37565613 67.2855835 C24.39397274 67.19702068 30.41210394 67.13672877 36.4309082 67.09277344 C38.67642741 67.0726706 40.92189435 67.04538395 43.16723633 67.01074219 C46.3967784 66.9621669 49.62562775 66.93951763 52.85546875 66.921875 C54.35886055 66.89090729 54.35886055 66.89090729 55.8926239 66.85931396 C60.34043327 66.85788531 62.88751662 66.86125841 66.74804688 69.22338867 C70.28830393 73.16381266 69.78499379 77.09533576 69.8125 82.25 C69.82667969 83.45527344 69.84085938 84.66054688 69.85546875 85.90234375 C69.55608135 90.33226244 68.78034505 93.15715495 65.625 96.3125 C63.52426147 96.55300903 63.52426147 96.55300903 60.89990234 96.53955078 C59.42860367 96.53932419 59.42860367 96.53932419 57.92758179 96.53909302 C56.86608917 96.52877045 55.80459656 96.51844788 54.7109375 96.5078125 C53.62616119 96.5049826 52.54138489 96.50215271 51.42373657 96.49923706 C47.94904687 96.48801578 44.47461218 96.46290762 41 96.4375 C38.64844121 96.42747272 36.2968784 96.41834643 33.9453125 96.41015625 C28.17178756 96.38807011 22.39841199 96.35457345 16.625 96.3125 C16.70969193 108.47454549 16.80468523 120.63646393 16.91252708 132.79832745 C16.96229487 138.44666313 17.00862543 144.09498185 17.046875 149.7434082 C17.08397584 155.20296644 17.13040038 160.66237568 17.18306351 166.12180519 C17.20147656 168.19597551 17.2166318 170.27017761 17.22834396 172.34439659 C16.45189046 195.41591327 16.45189046 195.41591327 25.04296875 215.96875 C30.12111737 220.45945212 34.87644132 221.55297946 41.5 221.65625 C42.81484375 221.68589844 44.1296875 221.71554687 45.484375 221.74609375 C46.86456549 221.76931496 48.24477484 221.79144023 49.625 221.8125 C52.33384622 221.85383216 55.0414139 221.90767404 57.75 221.96875 C58.94882813 221.98744141 60.14765625 222.00613281 61.3828125 222.02539062 C65.39012135 222.38025472 68.18133794 223.23839016 71.41040039 225.64086914 C73.90544266 229.07474943 73.09270558 233.66675449 73.0625 237.75 C73.08248047 238.70455078 73.10246094 239.65910156 73.12304688 240.64257812 C73.11818395 247.59169268 73.11818395 247.59169268 70.84765625 250.91015625 C59.04043743 258.35970204 33.98284302 253.86698791 20.625 251.3125 C8.01906723 247.87939491 -1.30765766 241.31988569 -8.375 230.3125 C-18.64973529 212.24795182 -17.52402247 191.01243969 -17.47265625 170.921875 C-17.47078807 168.76426222 -17.46936606 166.60664901 -17.46836853 164.44903564 C-17.46457482 158.80701499 -17.45477186 153.16502062 -17.44366455 147.52301025 C-17.43338233 141.75102087 -17.4288564 135.97902718 -17.42382812 130.20703125 C-17.41314638 118.9088427 -17.39610833 107.61067355 -17.375 96.3125 C-18.29313477 96.33344727 -19.21126953 96.35439453 -20.15722656 96.37597656 C-23.57155428 96.44424583 -26.98515443 96.49434385 -30.39990234 96.53222656 C-31.8762559 96.55231301 -33.35253019 96.57958801 -34.82861328 96.61425781 C-36.95364962 96.66291184 -39.07763234 96.68549673 -41.203125 96.703125 C-43.1197998 96.7345459 -43.1197998 96.7345459 -45.07519531 96.76660156 C-48.375 96.3125 -48.375 96.3125 -50.78990173 94.42625427 C-53.56947162 90.71965271 -52.99212418 86.85096939 -52.9375 82.375 C-52.96134766 81.48103516 -52.98519531 80.58707031 -53.00976562 79.66601562 C-53.00783203 78.79783203 -53.00589844 77.92964844 -53.00390625 77.03515625 C-53.0049939 75.85578491 -53.0049939 75.85578491 -53.00610352 74.65258789 C-52.04855009 71.10204646 -50.18789375 69.62416651 -47.375 67.3125 C-44.0534668 66.74487305 -44.0534668 66.74487305 -40.32421875 66.82421875 C-39.66541214 66.83129349 -39.00660553 66.83836823 -38.32783508 66.84565735 C-36.23819966 66.87349021 -34.15131524 66.93619181 -32.0625 67 C-30.64001286 67.02509795 -29.21748341 67.04790852 -27.79492188 67.06835938 C-24.32073139 67.12327554 -20.8481345 67.20946315 -17.375 67.3125 C-17.38166183 66.5741391 -17.38832367 65.8357782 -17.39518738 65.07504272 C-17.45540979 58.10150907 -17.5010309 51.12801452 -17.53043652 44.15428734 C-17.54606279 40.56937908 -17.5672448 36.9846865 -17.60131836 33.39990234 C-17.63402129 29.93747475 -17.65187586 26.47525404 -17.65963173 23.01268387 C-17.66783593 21.0551292 -17.69123793 19.09765724 -17.71488953 17.14022827 C-17.71511612 15.93943634 -17.71534271 14.73864441 -17.71557617 13.50146484 C-17.72223801 12.44889496 -17.72889984 11.39632507 -17.73576355 10.31185913 C-17.30932632 6.76649427 -16.20346801 4.36317677 -14.375 1.3125 C-10.15358817 -0.79820592 -4.63815515 0.03873738 0 0 Z " fill="#9367EB" transform="translate(1140.375,340.6875)"/>
<path d="M0 0 C0.99902344 0.00257813 1.99804688 0.00515625 3.02734375 0.0078125 C4.05988281 0.03617187 5.09242187 0.06453125 6.15625 0.09375 C7.70505859 0.08988281 7.70505859 0.08988281 9.28515625 0.0859375 C18.73931713 0.20792667 18.73931713 0.20792667 22.65625 3.59375 C24.12809792 6.53744585 23.79246382 9.1568025 23.80342102 12.44429016 C23.80709771 13.15709284 23.8107744 13.86989553 23.8145625 14.60429829 C23.82561996 17.00484212 23.82944664 19.40534269 23.83325195 21.8059082 C23.83951501 23.52220803 23.84616167 25.2385065 23.85316467 26.95480347 C23.8705882 31.62635465 23.88112996 36.29789558 23.8893702 40.96947122 C23.89451714 43.88653699 23.90059299 46.80359956 23.90688133 49.72066307 C23.92593658 58.84296003 23.9401674 67.96524887 23.9484933 77.08756191 C23.9582701 87.62625105 23.98459978 98.1647304 24.02499419 108.7033456 C24.0551274 116.84352592 24.06995949 124.98364601 24.07327431 133.12388104 C24.07562786 137.98832986 24.08462785 142.85255463 24.10973549 147.71694374 C24.13297261 152.29292061 24.1372671 156.86852523 24.12697411 161.44454575 C24.12647758 163.12435708 24.13283232 164.80418647 24.14653015 166.48394203 C24.16418471 168.77716267 24.15717599 171.06903805 24.14399719 173.36225891 C24.14638555 174.64556249 24.1487739 175.92886606 24.15123463 177.25105762 C23.57118531 181.1682024 22.42648739 182.81845384 19.65625 185.59375 C15.64438725 187.20222661 11.11345872 186.8160021 6.84375 186.84375 C5.67102539 186.8746875 5.67102539 186.8746875 4.47460938 186.90625 C-0.88349901 186.94206025 -4.60549827 186.14559276 -9.34375 183.59375 C-10.81975217 180.64174567 -10.48340636 178.00155724 -10.49765015 174.70524597 C-10.5020324 173.98835974 -10.50641465 173.2714735 -10.5109297 172.53286344 C-10.52433838 170.11850467 -10.53050116 167.70418241 -10.53662109 165.28979492 C-10.54452038 163.56364272 -10.55278922 161.83749218 -10.56140137 160.11134338 C-10.58763968 154.43231793 -10.60292994 148.75328502 -10.6171875 143.07421875 C-10.62254627 141.12103076 -10.62792378 139.16784281 -10.63331985 137.21465492 C-10.65495045 129.09174203 -10.67368833 120.96883114 -10.68494225 112.84589672 C-10.70118901 101.19488277 -10.73438236 89.54420194 -10.79134309 77.89331359 C-10.83000749 69.70642626 -10.84957073 61.51962816 -10.85486281 53.33265191 C-10.85852083 48.44020075 -10.87058992 43.54810472 -10.90296555 38.65575218 C-10.93298497 34.05345529 -10.93938003 29.45172954 -10.92758179 24.8493557 C-10.92736054 23.15985997 -10.93570763 21.4703382 -10.95323563 19.78093338 C-10.97586523 17.47433313 -10.96766375 15.16981492 -10.95175171 12.86320496 C-10.95671693 10.92718808 -10.95671693 10.92718808 -10.96178246 8.95205975 C-9.83657162 2.83780719 -6.08481392 -0.04763911 0 0 Z " fill="#9D67E5" transform="translate(1032.34375,407.40625)"/>
<path d="M0 0 C1.90458984 -0.00290039 1.90458984 -0.00290039 3.84765625 -0.00585938 C5.16636719 0.01798828 6.48507812 0.04183594 7.84375 0.06640625 C9.16246094 0.05544922 10.48117187 0.04449219 11.83984375 0.03320312 C22.70794371 0.11595516 22.70794371 0.11595516 27.34375 4.62890625 C29.44730595 8.83601815 28.61749276 14.31895918 28.65625 18.94140625 C28.68525391 20.08287109 28.71425781 21.22433594 28.74414062 22.40039062 C28.8080376 30.81021575 28.8080376 30.81021575 26.51171875 34.859375 C21.32868637 39.08985008 14.31673602 37.8525113 7.96875 37.87890625 C6.73640625 37.89953125 5.5040625 37.92015625 4.234375 37.94140625 C2.45160156 37.94914062 2.45160156 37.94914062 0.6328125 37.95703125 C-0.99599854 37.9710498 -0.99599854 37.9710498 -2.65771484 37.98535156 C-6.05467662 37.58154402 -7.92228733 36.6509187 -10.65625 34.62890625 C-12.88002264 30.18136097 -11.97578162 24.20014535 -12.03125 19.31640625 C-12.06863281 18.07955078 -12.10601563 16.84269531 -12.14453125 15.56835938 C-12.15613281 14.37533203 -12.16773438 13.18230469 -12.1796875 11.953125 C-12.19950684 10.86088623 -12.21932617 9.76864746 -12.23974609 8.64331055 C-10.91469849 1.79797046 -6.45738973 -0.00404711 0 0 Z " fill="#9D67E5" transform="translate(1030.65625,337.37109375)"/>
</svg>
